
<svg width="21px" height="21px" viewBox="0 0 21 21" version="1.1" xmlns="http://www.w3.org/2000/svg" xmlns:xlink="http://www.w3.org/1999/xlink">
    <defs>
        <polygon id="path-97wecg-ani-1" points="0 0 21 0 21 21 0 21"></polygon>
    </defs>
    <g id="Page-1" stroke="none" stroke-width="1" fill="none" fill-rule="evenodd">
        <g id="Main-Page-(Edit-Page)" transform="translate(-1203.000000, -123.000000)">
            <g id="Group-8" transform="translate(1203.000000, 123.000000)">
                <g id="Group-3">
                    <mask id="mask-97wecg-ani-2" fill="white">
                        <use xlink:href="#path-97wecg-ani-1"></use>
                    </mask>
                    <g id="Clip-2"></g>
                    <path d="M14.3123938,16.8800244 C14.3973359,16.9287412 14.496961,16.9683779 14.5752378,17.0336448 C15.0984464,17.4700994 15.616825,17.9123497 16.137361,18.3519597 C16.3044117,18.4930548 16.3799516,18.4898027 16.5357324,18.3342826 C17.1318727,17.739088 17.72753,17.1433461 18.3229297,16.5473466 C18.4928461,16.3772082 18.4960338,16.3082384 18.3411867,16.1248985 C17.9015357,15.6043407 17.4605001,15.0850065 17.0212676,14.5640945 C16.8758228,14.3916378 16.8803307,14.2845125 16.9701349,14.0785047 C17.1902502,13.5735955 17.4032495,13.0652411 17.6049789,12.5527008 C17.6951051,12.3237996 17.7608242,12.2554416 18.0082124,12.2354139 C18.6765116,12.1812878 19.3447464,12.1263567 20.012788,12.0693004 C20.2490031,12.0491118 20.3097312,11.9889644 20.310021,11.7794791 C20.3111802,10.9263079 20.3113734,10.0731367 20.3099888,9.21999764 C20.3096346,9.01624372 20.249486,8.94981763 20.0453739,8.93233369 C19.3666742,8.87424708 18.6877814,8.81834998 18.0087598,8.76412723 C17.7653321,8.74467916 17.6940748,8.67397063 17.6046569,8.44638961 C17.4051815,7.93874355 17.1962715,7.43447836 16.9770578,6.93507519 C16.8785919,6.71074625 16.8725063,6.61212137 17.0319578,6.4230179 C17.4711903,5.90213814 17.9118717,5.38248193 18.3511364,4.86166657 C18.4924919,4.69403969 18.4889499,4.61798615 18.3343605,4.46323879 C17.7390252,3.86727146 17.1433035,3.27169051 16.547453,2.67627056 C16.3763774,2.50529501 16.3101432,2.50159215 16.125576,2.65730548 C15.6088718,3.09318044 15.0934555,3.53050436 14.57688,3.96654032 C14.3863559,4.12734105 14.2805808,4.14237789 14.067324,4.01789738 C13.591996,3.74044044 13.0880105,3.53510878 12.5575248,3.39098702 C12.320698,3.32662164 12.2556552,3.2375276 12.2359169,2.9935252 C12.1818863,2.3252394 12.1265676,1.65701799 12.0697678,0.988989781 C12.048323,0.736841088 11.9914266,0.688153962 11.7343464,0.688153962 C10.9079801,0.688153962 10.0816461,0.688153962 9.25531211,0.688575108 C9.00595971,0.688736102 8.94967511,0.738966208 8.92938946,0.981648458 C8.87310486,1.65511827 8.81756084,2.32868467 8.7631116,3.00231547 C8.74440373,3.23388914 8.66973325,3.30678719 8.45029412,3.39327313 C7.93800116,3.59522392 7.42921794,3.80667334 6.92452405,4.02694524 C6.70885226,4.12106229 6.61,4.12534473 6.42659204,3.97056516 C5.90998436,3.5346258 5.39427826,3.09759168 4.87805698,2.66113713 C4.68769394,2.5001754 4.62416446,2.50233272 4.44387984,2.68235613 C3.85540303,3.27001618 3.2675058,3.8583202 2.67993058,4.4468818 C2.50206092,4.62503769 2.50022555,4.68821171 2.66350887,4.88124343 C3.10006876,5.39735777 3.53736924,5.91286033 3.97341394,6.42942545 C4.12194992,6.60539182 4.12172453,6.71139022 4.03153392,6.91392059 C3.82478137,7.37813048 3.62118436,7.84424011 3.43478185,8.31682169 C3.32945751,8.58374963 3.16421003,8.74764145 2.87393215,8.77185494 C2.24855479,8.82404917 1.62317743,8.8762112 0.997767868,8.92760046 C0.743682153,8.94843308 0.687043353,9.00635869 0.686914555,9.25506212 C0.686454198,10.0760346 0.686454198,10.897007 0.686454198,11.7179795 C0.686689159,11.9956618 0.733539332,12.0485644 1.00449755,12.0712967 C1.67263576,12.127387 2.34087056,12.1823825 3.00913756,12.2367985 C3.23198983,12.2549264 3.30772289,12.3309477 3.39044323,12.5401755 C3.59284886,13.0523615 3.80249936,13.5619717 4.02335526,14.0664301 C4.12127373,14.2900185 4.12674764,14.3871622 3.96555728,14.5781654 C3.53295792,15.0906091 3.09919937,15.6020868 2.66634242,16.1143051 C2.49877657,16.3125852 2.50241511,16.3732799 2.68926841,16.5601939 C3.27723003,17.1484013 3.86503066,17.7366731 4.45321767,18.324623 C4.62255449,18.4939242 4.69081728,18.4959205 4.87532002,18.3398208 C5.39546964,17.8997278 5.91510407,17.4590552 6.43586548,17.0197028 C6.60339912,16.8783501 6.7181257,16.8646012 6.90571958,16.9671221 C7.40603435,17.2406508 7.92863113,17.459023 8.47698745,17.6165717 C8.66944345,17.6718892 8.74517652,17.7747965 8.76175922,17.977681 C8.81727104,18.6566246 8.87281506,19.335536 8.92906747,20.0144152 C8.94919211,20.2572263 9.00727989,20.3102255 9.25296155,20.3103221 C10.0846729,20.3105531 10.9163842,20.3105531 11.7480955,20.3101611 C11.9903318,20.3100645 12.0487094,20.2579347 12.0696068,20.0118715 C12.126793,19.3384339 12.1820794,18.6648675 12.2368829,17.9912367 C12.2551722,17.7658452 12.3298748,17.691305 12.5382374,17.6089727 C13.055328,17.4045426 13.5666872,17.1855909 14.0804291,16.9727569 C14.1485631,16.9445508 14.2173411,16.9179546 14.3123938,16.8800244 M19.1383159,16.3362835 C19.1389599,16.5786438 19.0565937,16.7902542 18.8865807,16.9612298 C18.2471966,17.6043361 17.6085209,18.2481508 16.9622139,18.8841735 C16.6185493,19.2223895 16.1094441,19.2305036 15.7342885,18.9164044 C15.2736435,18.5306952 14.8149626,18.1424422 14.359566,17.7505508 C14.282706,17.6844145 14.2265824,17.6819352 14.1342666,17.7226989 C13.7768851,17.8803119 13.4165091,18.032258 13.0510777,18.1700366 C12.9412454,18.2114764 12.9038297,18.265828 12.8955223,18.3737905 C12.851409,18.9459951 12.79828,19.5175236 12.7562597,20.089857 C12.7152054,20.6486991 12.3513519,20.9983779 11.7931103,20.9991185 C10.9291996,21.0002455 10.0652888,21.0003743 9.20141026,20.9990219 C8.65154057,20.9981526 8.28552963,20.6482161 8.24415336,20.1016096 C8.19965374,19.5133055 8.14346574,18.9259675 8.09738835,18.3377923 C8.09040107,18.248505 8.0547563,18.2145675 7.97287315,18.1823365 C7.59939194,18.0354457 7.2279715,17.8826302 6.86102677,17.7202195 C6.76613505,17.6781679 6.71065543,17.6896951 6.63614594,17.7536741 C6.19253437,18.1346501 5.74534867,18.5114403 5.29819516,18.8882627 C4.87261527,19.246925 4.37738801,19.2275413 3.98613272,18.8370022 C3.37852944,18.2304737 2.77144136,17.6234622 2.16515826,17.0156135 C1.7721964,16.6216936 1.75071938,16.1287302 2.10810087,15.7040604 C2.48805416,15.2524724 2.86836165,14.8011742 3.25266187,14.3533535 C3.31409838,14.2817756 3.3186707,14.2292594 3.28019238,14.1418075 C3.1206442,13.7792813 2.96682751,13.4138895 2.82489242,13.0441831 C2.78557691,12.9418231 2.73663377,12.9047301 2.63282281,12.896777 C2.0552616,12.8525359 1.47850538,12.7979911 0.900815379,12.7558429 C0.354036831,12.7159808 0.00122765822,12.3487215 0.000680267882,11.8012455 C-0.000221316204,10.9319749 -0.000221316204,10.0627043 0.00064806845,9.19343364 C0.00116325936,8.65468355 0.353811435,8.28494489 0.889030387,8.24469641 C1.4773462,8.20045528 2.06472823,8.1441718 2.65294745,8.09864272 C2.74809677,8.0912692 2.78525492,8.05385421 2.81964391,7.96588712 C2.96586153,7.59196262 3.11900203,7.22042083 3.28215655,6.85358006 C3.32288883,6.76203891 3.30817369,6.71132583 3.24960292,6.64283901 C2.86610769,6.19434212 2.4857036,5.74314053 2.10500972,5.29222873 C1.75400372,4.87651021 1.77300138,4.37759002 2.15697961,3.99236374 C2.76680464,3.38049021 3.37762786,2.76964704 3.98957806,2.15989863 C4.37716262,1.77370639 4.87280847,1.7522942 5.28888952,2.10264919 C5.74029336,2.48275586 6.19160059,2.86302352 6.63901169,3.24779902 C6.71519555,3.31329135 6.77077177,3.31789577 6.86389252,3.27661693 C7.22101642,3.1182955 7.58145686,2.96628503 7.94685601,2.82834543 C8.05623748,2.78703439 8.09336342,2.73577392 8.10179967,2.62594386 C8.14597729,2.04839424 8.20152131,1.47168178 8.24421776,0.894035561 C8.28395186,0.356283637 8.65166937,0.00145301528 9.18827289,0.000776840774 C10.0629061,-0.000253520377 10.937507,-0.000285719163 11.8121724,0.000841238346 C12.3404363,0.00154961164 12.7136277,0.354448306 12.7539092,0.880093487 C12.7977004,1.45233031 12.8492839,2.02395536 12.8923989,2.59622438 C12.9018011,2.72099468 12.941503,2.78445848 13.0727157,2.83162971 C13.4297108,2.95997407 13.7799762,3.10918324 14.124961,3.26747247 C14.2318631,3.31654342 14.2910778,3.30704478 14.3751827,3.23456531 C14.8141254,2.85639057 15.2573828,2.48317444 15.7009621,2.1104091 C16.1333361,1.747078 16.6226709,1.77158127 17.0244554,2.17338992 C17.62388,2.77293132 18.2235622,3.37218293 18.8226648,3.97204631 C19.230857,4.3807133 19.2516579,4.8687181 18.8803984,5.30778075 C18.5062732,5.75019206 18.1342732,6.19443871 17.7555435,6.63288958 C17.6845115,6.71512528 17.6819356,6.77379147 17.725759,6.87222316 C17.8825058,7.22422029 18.0316536,7.58008127 18.1676962,7.94054668 C18.2107468,8.05456258 18.2655503,8.09526185 18.3821766,8.10392332 C18.9544249,8.14658671 19.5258038,8.20132465 20.0981165,8.24382704 C20.646344,8.28455851 20.9984448,8.6508519 20.999121,9.19794147 C21.0002158,10.0618349 21.0003446,10.9257283 20.9991854,11.7896218 C20.9984448,12.3496552 20.6491132,12.7151437 20.093512,12.7561971 C19.5105413,12.7992147 18.92844,12.8545 18.3456303,12.8998681 C18.2514469,12.9071772 18.2130008,12.9450752 18.1784508,13.0335253 C18.0324908,13.4075142 17.8789317,13.7788306 17.7162924,14.1458323 C17.6758821,14.2369871 17.6906294,14.2882475 17.7493934,14.3569598 C18.1365271,14.8094171 18.5190564,15.2658349 18.9052242,15.7191616 C19.0574953,15.8979615 19.142051,16.0998478 19.1383159,16.3362835" id="Fill-1" fill="#000000" mask="url(#mask-97wecg-ani-2)"></path>
                </g>
                <path d="M10.5107982,6.72671564 C8.39485311,6.72379534 6.67602292,8.43069748 6.67081622,10.5399684 C6.66563311,12.6614021 8.37746417,14.3822402 10.4958046,14.3850744 C12.6050616,14.3878706 14.3254161,12.6725384 14.3291862,10.5627387 C14.332944,8.45150805 12.6189666,6.72964345 10.5107982,6.72671564 M6.00001009,10.4974848 C6.00527735,8.01687808 8.03241577,5.99479379 10.5087436,6.00001007 C12.9888354,6.00524657 15.0045264,8.03062846 14.9999924,10.5127907 C14.995443,12.9925886 12.9683357,15.0074866 10.4856309,14.9999791 C8.01228934,14.9924296 5.99479419,12.9673899 6.00001009,10.4974848" id="Fill-4" fill="#000000"></path>
            </g>
        </g>
    </g>
</svg>