
<svg width="20px" height="19px" viewBox="0 0 20 19" version="1.1" xmlns="http://www.w3.org/2000/svg" xmlns:xlink="http://www.w3.org/1999/xlink">
    <g id="Page-1" stroke="none" stroke-width="1" fill="none" fill-rule="evenodd">
        <g id="Main-Page-(Edit-Page)" transform="translate(-744.000000, -124.000000)">
            <g id="Group" transform="translate(549.000000, 124.000000)">
                <g id="Time-Zone-Slider" transform="translate(0.000000, 1.000000)" stroke="#576573">
                    <path d="M207.665859,10.3327533 C207.628957,10.3498072 207.591862,10.3662831 207.554671,10.3823735 C206.062066,11.0280628 204.295923,11.0160191 202.817818,10.3378598 C201.339713,9.65979693 200.175757,8.32337473 199.719877,6.76236076 C199.263949,5.20129861 199.528141,3.4427672 200.433638,2.09194068 C198.119553,3.11296127 196.410256,5.12248433 196.327732,7.73930123 C196.266261,9.68995447 197.194882,11.6465332 198.745008,12.8323123 C200.295135,14.0180913 202.426541,14.4022868 204.293129,13.8324731 C206.159716,13.262563 207.713071,11.7534335 208.336648,9.90409227 C208.142021,10.0862419 207.908468,10.2206983 207.665859,10.3327533 Z" id="Stroke-1"></path>
                </g>
                <path d="" id="Shape-2-copy-2" stroke="#2C3E50" fill-opacity="0" fill="#000000" opacity="0.8"></path>
            </g>
        </g>
    </g>
</svg>