<?xml version="1.0" encoding="UTF-8"?>
<svg width="23.4098585px" height="13.8262858125px" viewBox="0 0 374.557736 221.220573" version="1.1" xmlns="http://www.w3.org/2000/svg" xmlns:xlink="http://www.w3.org/1999/xlink">
    <title>Sun</title>
    <defs>
        <polygon id="path-1" points="0 0.14385 1 0.14385 1 0.85615 0 0.85615"></polygon>
        <polygon id="path-3" points="0 0.14385 1 0.14385 1 0.85615 0 0.85615"></polygon>
        <polygon id="path-5" points="0 0 67.8343033 0 67.8343033 16.9883623 0 16.9883623"></polygon>
    </defs>
    <g id="Sun" stroke="none" stroke-width="1" fill="none" fill-rule="evenodd">
        <g id="Group-3" transform="translate(88.422636, 220.220573)">
            <mask id="mask-2" fill="white">
                <use xlink:href="#path-1"></use>
            </mask>
            <g id="Clip-2"></g>
            <path d="M0.5365,0.85635 L0.4635,0.43135 C0.4895,0.57335 0.5105,0.71335 0.5365,0.85635" id="Fill-1" fill="#000000" mask="url(#mask-2)"></path>
        </g>
        <g id="Group-6" transform="translate(287.504536, 220.220573)">
            <mask id="mask-4" fill="white">
                <use xlink:href="#path-3"></use>
            </mask>
            <g id="Clip-5"></g>
            <path d="M0.4565,0.85635 C0.4875,0.71335 0.5135,0.57335 0.5435,0.43135 L0.4565,0.85635 Z" id="Fill-4" fill="#000000" mask="url(#mask-4)"></path>
        </g>
        <path d="M196.650436,85.5091226 C167.827436,82.6321226 141.807436,90.5571226 119.970436,110.797123 C91.4874356,137.196123 80.5194356,170.191123 84.5614356,208.407123 C84.9864356,212.431123 85.5774356,216.513123 86.3334356,220.652123 L285.495436,220.652123 C286.277436,216.990123 286.886436,213.363123 287.341436,209.774123 C295.731436,143.521123 249.498436,90.7841226 196.650436,85.5091226" id="Fill-7" fill="#576573"></path>
        <path d="M131.822136,125.245423 C108.448136,146.801423 99.4471356,171.811423 102.764136,203.015423 L269.171136,203.015423 C276.056136,148.917423 238.115136,108.905423 194.747136,104.597423 C171.095136,102.248423 149.742136,108.720423 131.822136,125.245423 Z" id="Fill-9" fill="#FFFFFF"></path>
        <path d="M177.466436,33.6253226 C177.466436,26.1863226 177.433436,18.7463226 177.490436,11.3073226 C177.504436,9.59632265 177.651436,7.84832265 178.038436,6.18632265 C178.896436,2.50032265 182.056436,0.0863226455 185.828436,0.00232264545 C189.774436,-0.0856773545 193.113436,2.33332265 194.032436,6.16832265 C194.429436,7.82632265 194.589436,9.57732265 194.593436,11.2873226 C194.635436,26.2983226 194.628436,41.3093226 194.614436,56.3203226 C194.607436,63.7913226 191.549436,67.9023226 186.052436,67.9113343 C180.557436,67.9193226 177.485436,63.7973226 177.469436,56.3413226 C177.453436,48.7693226 177.466436,41.1973226 177.466436,33.6253226" id="Fill-11" fill="#576573"></path>
        <path d="M105.297111,95.2234226 C105.336936,103.276423 98.5299356,107.327423 92.8899356,104.151423 C91.6389356,103.446423 90.5039356,102.462423 89.4799356,101.442423 C78.3729356,90.3784226 67.3069356,79.2744226 56.2119356,68.1994226 C53.1989356,65.1924226 51.2579356,61.8804226 53.0869356,57.5144226 C55.0649356,52.7894226 60.6279356,50.9454226 65.0279356,53.5774226 C66.2639356,54.3154226 67.3779356,55.3124226 68.4049356,56.3354226 C79.4169356,67.3064226 90.4589356,78.2474226 101.336936,89.3504226 C103.268936,91.3234226 104.486936,93.9954226 105.297111,95.2234226" id="Fill-13" fill="#576573"></path>
        <path d="M268.651436,96.4285226 C269.887436,94.3245226 270.758436,91.8645226 272.417436,90.1755226 C283.863436,78.5135226 295.433436,66.9725226 307.051436,55.4815226 C311.130436,51.4485226 316.359436,51.3285226 319.789436,54.8765226 C323.191436,58.3965226 323.113436,63.3175226 319.133436,67.3545226 C307.569436,79.0865226 295.888436,90.7045226 284.197436,102.310523 C281.336436,105.151523 277.881436,106.307523 274.031436,104.446523 C270.914436,102.939523 269.254436,100.334523 268.651436,96.4285226" id="Fill-15" fill="#576573"></path>
        <path d="M33.8590356,178.813323 C42.3570356,178.818323 50.8590356,178.660323 59.3520356,178.871323 C65.5170356,179.024323 69.2250356,184.148323 67.4850356,189.738323 C66.2740356,193.634323 63.2800356,195.621323 59.3940356,195.648323 C42.3990356,195.765323 25.4010356,195.801323 8.40703561,195.623323 C3.43803561,195.570323 0.0110356054,191.754323 -1.42108547e-14,187.242323 C-0.0129643946,182.546323 3.53503561,178.948323 8.76403561,178.850323 C17.1270356,178.694323 25.4940356,178.808323 33.8590356,178.813323" id="Fill-17" fill="#576573"></path>
        <g id="Group-21" transform="translate(306.723432, 178.761513)">
            <mask id="mask-6" fill="white">
                <use xlink:href="#path-5"></use>
            </mask>
            <g id="Clip-20"></g>
            <path d="M33.7708033,16.9619098 C25.5388033,16.9599098 17.3048033,17.0409098 9.07380328,16.9289098 C4.28280328,16.8629098 1.15080328,14.4049098 0.242803278,10.4279098 C-0.645196722,6.54190978 0.934803278,2.71990978 4.45380328,1.07990978 C5.95580328,0.380909782 7.76980328,0.0719097823 9.44480328,0.0649097823 C25.6438033,-0.00909021769 41.8438033,-0.0230902177 58.0428033,0.0399097823 C64.1188033,0.0639097823 67.9588033,3.56190978 67.8318033,8.64390978 C67.7068033,13.6099098 63.9538033,16.8889098 58.0708033,16.9439098 C49.9708033,17.0209098 41.8718033,16.9629098 33.7708033,16.9619098" id="Fill-19" fill="#576573" mask="url(#mask-6)"></path>
        </g>
    </g>
</svg>